# Blender v2.74 (sub 0) OBJ File: ''
# www.blender.org
mtllib simple-rock.mtl
o Icosahedron
v -0.005081 1.237391 -0.145234
v -0.431605 -0.007428 -0.002324
v 0.404118 0.026192 0.004690
v 0.012344 -0.001082 0.452799
v -0.004205 1.173761 0.242754
v 0.013303 0.009636 -0.490026
v 0.017244 0.884281 -0.310978
v 0.249656 0.694829 -0.285398
v 0.223977 0.710583 0.276910
v -0.346500 0.747972 -0.277642
v -0.202804 0.753790 0.132202
v -0.180186 1.090223 0.138686
v -0.151344 1.037139 -0.231355
v -0.285091 0.986652 -0.048412
v 0.153069 1.108871 0.149159
v -0.165761 0.657246 0.339371
v -0.370103 0.504676 -0.004224
v -0.125589 0.571331 -0.367603
v 0.123650 1.060821 -0.269497
v 0.298595 0.231882 0.241011
v -0.019300 0.043719 0.155722
v -0.039849 0.026050 -0.168016
v 0.235604 0.247378 -0.248576
v 0.410533 0.490454 -0.013634
v 0.132321 0.638811 0.354196
v -0.261879 0.226019 0.274046
v -0.256851 0.256284 -0.251561
v 0.115142 0.531260 -0.333190
v 0.266021 0.981766 -0.055976
v -0.140669 0.947379 0.223946
v 0.035804 1.290118 0.035983
v -0.138729 1.058625 0.047241
v -0.197946 0.846802 -0.287966
v -0.191373 1.129443 -0.196288
v -0.029189 1.188413 -0.254317
v -0.365777 0.700207 -0.017048
v 0.199312 0.974712 0.264692
v 0.262967 1.091664 0.072397
v -0.198612 0.362124 0.363732
v 0.015345 0.569396 0.362744
v -0.356205 0.371650 -0.129008
v -0.434895 0.397620 0.137232
v 0.023514 0.430644 -0.362505
v -0.213486 0.407427 -0.384422
v 0.135478 1.133478 -0.225760
v 0.193806 0.790300 -0.282548
v 0.229407 0.351726 0.365422
v 0.229853 0.001710 0.260184
v 0.398739 0.342789 0.129741
v -0.205820 0.041044 0.254131
v 0.062390 -0.010852 0.010023
v -0.250986 0.028096 -0.236549
v 0.211982 0.002460 -0.248170
v 0.190635 0.353130 -0.404559
v 0.364841 0.352503 -0.147705
v 0.271787 0.732785 0.025824
vt 0.612701 0.666667
vt 0.669052 0.588104
vt 0.750000 0.676208
vt 0.625000 0.750000
vt 0.500000 0.823792
vt 0.544052 0.661896
vt 0.588104 0.500000
vt 0.387299 0.666667
vt 0.330948 0.588104
vt 0.411896 0.500000
vt 0.455948 0.661896
vt 0.375000 0.750000
vt 0.250000 0.676208
vt 0.500000 0.607931
vt 0.500000 0.500000
vt 0.887299 0.666667
vt 0.830948 0.588104
vt 0.911896 0.500000
vt 0.955948 0.661896
vt 1.000000 0.823792
vt 0.875000 0.750000
vt 0.696035 0.500000
vt 0.669052 0.411896
vt 0.750000 0.323792
vt 0.750000 0.500000
vt 0.500000 0.392069
vt 0.455948 0.338104
vt 0.500000 0.176208
vt 0.544052 0.338104
vt 0.303965 0.500000
vt 0.250000 0.500000
vt 0.250000 0.323792
vt 0.330948 0.411896
vt 0.112701 0.666667
vt 0.044052 0.661896
vt 0.088104 0.500000
vt 0.169052 0.588104
vt 0.125000 0.750000
vt 0.000000 0.823792
vt 0.887299 0.333333
vt 0.830948 0.411896
vt 0.875000 0.250000
vt 1.000000 0.176208
vt 0.955948 0.338104
vt 0.750000 0.225403
vt 0.625000 0.250000
vt 0.750000 0.176208
vt 0.250000 0.225403
vt 0.375000 0.250000
vt 0.125000 0.250000
vt 0.000000 0.176208
vt 0.250000 0.176208
vt 0.112701 0.333333
vt 0.169052 0.411896
vt 0.044052 0.338104
vt 1.000000 0.392069
vt 1.000000 0.500000
vt 1.044052 0.338104
vt 1.088104 0.500000
vt 0.803965 0.500000
vt 0.612701 0.333333
vt 0.387299 0.333333
vt 0.196035 0.500000
vt 1.000000 0.607931
vt 1.044052 0.661896
vn -0.869200 0.470800 0.151300
vn -0.808900 0.302000 0.504500
vn -0.101200 0.487700 0.867100
vn -0.052900 0.953700 0.296000
vn -0.042900 0.937200 -0.346200
vn -0.841600 0.489900 0.227500
vn -0.863800 0.244900 0.440300
vn -0.324900 0.394400 -0.859600
vn -0.175600 0.228400 -0.957600
vn -0.789900 0.178300 -0.586700
vn -0.655000 0.649600 -0.385900
vn -0.073400 0.443700 -0.893200
vn 0.028300 0.166500 -0.985600
vn -0.806500 0.490100 0.330600
vn -0.936800 0.272500 0.219500
vn 0.717900 0.619900 0.316600
vn 0.584900 0.355800 0.728900
vn 0.851500 0.198500 0.485300
vn 0.873700 0.476500 0.098000
vn -0.513100 0.207500 0.832900
vn -0.668300 0.080700 0.739500
vn -0.033700 -0.392600 0.919100
vn -0.059100 0.188800 0.980200
vn -0.985000 0.172400 0.010000
vn -0.920400 -0.030800 -0.389800
vn -0.783500 -0.620300 -0.035700
vn -0.919400 0.143100 0.366300
vn -0.035500 0.212500 -0.976500
vn 0.064100 0.197400 -0.978200
vn -0.039800 -0.295500 -0.954500
vn -0.514500 0.021700 -0.857200
vn 0.366000 0.387300 -0.846200
vn 0.712100 0.492300 -0.500600
vn 0.763400 0.212200 -0.610100
vn 0.199500 0.197700 -0.959800
vn 0.781600 -0.116400 0.612800
vn 0.604900 0.041100 0.795200
vn 0.465900 -0.788500 0.401500
vn 0.770200 -0.635700 -0.051100
vn 0.945500 0.055200 0.320800
vn -0.028200 -0.998500 0.046000
vn -0.439300 -0.756200 0.485000
vn 0.009200 -0.999700 0.021200
vn -0.010800 -0.998400 -0.055200
vn -0.512400 -0.719200 -0.469300
vn 0.507000 -0.768000 -0.391400
vn 0.799000 -0.142200 -0.584200
vn 0.466900 0.086700 -0.880100
vn 0.913900 0.018800 -0.405400
vn 0.966200 0.256500 -0.026300
vn 0.973300 0.228200 -0.025700
vn 0.237200 0.171000 0.956300
vn -0.697600 -0.080100 0.712000
vn -0.793200 -0.135700 -0.593700
vn 0.022400 0.244400 -0.969400
vn 0.954900 0.274200 -0.114200
usemtl b0b0b0
s 1
f 12/1/1 30/2/2 5/3/3 31/4/4
f 12/1/1 31/4/4 1/5/5 32/6/6
f 12/1/1 32/6/6 11/7/7 30/2/2
f 13/8/8 33/9/9 10/10/10 34/11/11
f 13/8/8 34/11/11 1/5/5 35/12/12
f 13/8/8 35/12/12 7/13/13 33/9/9
f 14/14/14 36/15/15 11/7/7 32/6/6
f 14/14/14 32/6/6 1/5/5 34/11/11
f 14/14/14 34/11/11 10/10/10 36/15/15
f 15/16/16 37/17/17 9/18/18 38/19/19
f 15/16/16 38/19/19 1/20/5 31/21/4
f 15/16/16 31/21/4 5/3/3 37/17/17
f 16/22/20 39/23/21 4/24/22 40/25/23
f 16/22/20 40/25/23 5/3/3 30/2/2
f 16/22/20 30/2/2 11/7/7 39/23/21
f 17/26/24 41/27/25 2/28/26 42/29/27
f 17/26/24 42/29/27 11/7/7 36/15/15
f 17/26/24 36/15/15 10/10/10 41/27/25
f 18/30/28 43/31/29 6/32/30 44/33/31
f 18/30/28 44/33/31 10/10/10 33/9/9
f 18/30/28 33/9/9 7/13/13 43/31/29
f 19/34/32 45/35/33 8/36/34 46/37/35
f 19/34/32 46/37/35 7/13/13 35/38/12
f 19/34/32 35/38/12 1/39/5 45/35/33
f 20/40/36 47/41/37 4/24/22 48/42/38
f 20/40/36 48/42/38 3/43/39 49/44/40
f 20/40/36 49/44/40 9/18/18 47/41/37
f 21/45/41 50/46/42 2/28/26 51/47/43
f 21/45/41 51/47/43 3/43/39 48/42/38
f 21/45/41 48/42/38 4/24/22 50/46/42
f 22/48/44 52/49/45 6/32/30 53/50/46
f 22/48/44 53/50/46 3/51/39 51/52/43
f 22/48/44 51/52/43 2/28/26 52/49/45
f 23/53/47 54/54/48 8/36/34 55/55/49
f 23/53/47 55/55/49 3/51/39 53/50/46
f 23/53/47 53/50/46 6/32/30 54/54/48
f 24/56/50 56/57/51 9/18/18 49/44/40
f 24/56/50 49/44/40 3/43/39 55/58/49
f 24/56/50 55/58/49 8/59/34 56/57/51
f 25/60/52 37/17/17 5/3/3 40/25/23
f 25/60/52 40/25/23 4/24/22 47/41/37
f 25/60/52 47/41/37 9/18/18 37/17/17
f 26/61/53 39/23/21 11/7/7 42/29/27
f 26/61/53 42/29/27 2/28/26 50/46/42
f 26/61/53 50/46/42 4/24/22 39/23/21
f 27/62/54 41/27/25 10/10/10 44/33/31
f 27/62/54 44/33/31 6/32/30 52/49/45
f 27/62/54 52/49/45 2/28/26 41/27/25
f 28/63/55 43/31/29 7/13/13 46/37/35
f 28/63/55 46/37/35 8/36/34 54/54/48
f 28/63/55 54/54/48 6/32/30 43/31/29
f 29/64/56 45/65/33 1/20/5 38/19/19
f 29/64/56 38/19/19 9/18/18 56/57/51
f 29/64/56 56/57/51 8/59/34 45/65/33
